<mxfile host="app.diagrams.net" agent="Mozilla/5.0 (Windows NT 10.0; Win64; x64) AppleWebKit/537.36 (KHTML, like Gecko) Chrome/133.0.0.0 Safari/537.36 Edg/133.0.0.0" version="26.0.11">
  <diagram name="Page-1" id="2YBvvXClWsGukQMizWep">
    <mxGraphModel dx="2177" dy="938" grid="1" gridSize="10" guides="1" tooltips="1" connect="1" arrows="1" fold="1" page="1" pageScale="1" pageWidth="850" pageHeight="1100" math="0" shadow="0">
      <root>
        <mxCell id="0" />
        <mxCell id="1" parent="0" />
        <mxCell id="aM9ryv3xv72pqoxQDRHE-1" value="&lt;font face=&quot;Comic Sans MS&quot; style=&quot;font-size: 9px;&quot;&gt;ActionsProxyController&lt;/font&gt;" style="shape=umlLifeline;perimeter=lifelinePerimeter;whiteSpace=wrap;html=1;container=0;dropTarget=0;collapsible=0;recursiveResize=0;outlineConnect=0;portConstraint=eastwest;newEdgeStyle={&quot;edgeStyle&quot;:&quot;elbowEdgeStyle&quot;,&quot;elbow&quot;:&quot;vertical&quot;,&quot;curved&quot;:0,&quot;rounded&quot;:0};" parent="1" vertex="1">
          <mxGeometry x="-175" y="40" width="100" height="600" as="geometry" />
        </mxCell>
        <mxCell id="aM9ryv3xv72pqoxQDRHE-2" value="" style="html=1;points=[];perimeter=orthogonalPerimeter;outlineConnect=0;targetShapes=umlLifeline;portConstraint=eastwest;newEdgeStyle={&quot;edgeStyle&quot;:&quot;elbowEdgeStyle&quot;,&quot;elbow&quot;:&quot;vertical&quot;,&quot;curved&quot;:0,&quot;rounded&quot;:0};" parent="aM9ryv3xv72pqoxQDRHE-1" vertex="1">
          <mxGeometry x="45" y="70" width="10" height="490" as="geometry" />
        </mxCell>
        <mxCell id="aM9ryv3xv72pqoxQDRHE-5" value="&lt;font style=&quot;font-size: 9px;&quot; face=&quot;Comic Sans MS&quot;&gt;ExtensionController&lt;/font&gt;" style="shape=umlLifeline;perimeter=lifelinePerimeter;whiteSpace=wrap;html=1;container=0;dropTarget=0;collapsible=0;recursiveResize=0;outlineConnect=0;portConstraint=eastwest;newEdgeStyle={&quot;edgeStyle&quot;:&quot;elbowEdgeStyle&quot;,&quot;elbow&quot;:&quot;vertical&quot;,&quot;curved&quot;:0,&quot;rounded&quot;:0};" parent="1" vertex="1">
          <mxGeometry x="5" y="40" width="100" height="600" as="geometry" />
        </mxCell>
        <mxCell id="aM9ryv3xv72pqoxQDRHE-6" value="" style="html=1;points=[];perimeter=orthogonalPerimeter;outlineConnect=0;targetShapes=umlLifeline;portConstraint=eastwest;newEdgeStyle={&quot;edgeStyle&quot;:&quot;elbowEdgeStyle&quot;,&quot;elbow&quot;:&quot;vertical&quot;,&quot;curved&quot;:0,&quot;rounded&quot;:0};" parent="aM9ryv3xv72pqoxQDRHE-5" vertex="1">
          <mxGeometry x="45" y="80" width="10" height="120" as="geometry" />
        </mxCell>
        <mxCell id="aM9ryv3xv72pqoxQDRHE-7" value="&lt;font style=&quot;font-size: 9px;&quot; face=&quot;Comic Sans MS&quot;&gt;Get Environments&lt;/font&gt;" style="html=1;verticalAlign=bottom;endArrow=block;edgeStyle=elbowEdgeStyle;elbow=vertical;curved=0;rounded=0;" parent="1" edge="1">
          <mxGeometry relative="1" as="geometry">
            <mxPoint x="-120" y="140" as="sourcePoint" />
            <Array as="points">
              <mxPoint x="-35" y="140" />
            </Array>
            <mxPoint x="50" y="140" as="targetPoint" />
          </mxGeometry>
        </mxCell>
        <mxCell id="xrb0LRakDdT9PTgw8md3-1" value="&lt;font style=&quot;font-size: 9px;&quot; face=&quot;Comic Sans MS&quot;&gt;WorkflowController&lt;/font&gt;" style="shape=umlLifeline;perimeter=lifelinePerimeter;whiteSpace=wrap;html=1;container=0;dropTarget=0;collapsible=0;recursiveResize=0;outlineConnect=0;portConstraint=eastwest;newEdgeStyle={&quot;edgeStyle&quot;:&quot;elbowEdgeStyle&quot;,&quot;elbow&quot;:&quot;vertical&quot;,&quot;curved&quot;:0,&quot;rounded&quot;:0};" vertex="1" parent="1">
          <mxGeometry x="145" y="40" width="100" height="600" as="geometry" />
        </mxCell>
        <mxCell id="xrb0LRakDdT9PTgw8md3-2" value="" style="html=1;points=[];perimeter=orthogonalPerimeter;outlineConnect=0;targetShapes=umlLifeline;portConstraint=eastwest;newEdgeStyle={&quot;edgeStyle&quot;:&quot;elbowEdgeStyle&quot;,&quot;elbow&quot;:&quot;vertical&quot;,&quot;curved&quot;:0,&quot;rounded&quot;:0};" vertex="1" parent="xrb0LRakDdT9PTgw8md3-1">
          <mxGeometry x="45" y="70" width="10" height="520" as="geometry" />
        </mxCell>
        <mxCell id="xrb0LRakDdT9PTgw8md3-4" value="&lt;font style=&quot;font-size: 9px;&quot; face=&quot;Comic Sans MS&quot;&gt;Operation Controller&lt;/font&gt;" style="shape=umlLifeline;perimeter=lifelinePerimeter;whiteSpace=wrap;html=1;container=0;dropTarget=0;collapsible=0;recursiveResize=0;outlineConnect=0;portConstraint=eastwest;newEdgeStyle={&quot;edgeStyle&quot;:&quot;elbowEdgeStyle&quot;,&quot;elbow&quot;:&quot;vertical&quot;,&quot;curved&quot;:0,&quot;rounded&quot;:0};" vertex="1" parent="1">
          <mxGeometry x="325" y="40" width="100" height="600" as="geometry" />
        </mxCell>
        <mxCell id="aM9ryv3xv72pqoxQDRHE-3" value="&lt;font face=&quot;Comic Sans MS&quot; style=&quot;font-size: 9px;&quot;&gt;&amp;nbsp; &amp;nbsp; Query Environment&lt;/font&gt;" style="html=1;verticalAlign=bottom;startArrow=oval;endArrow=block;startSize=8;edgeStyle=elbowEdgeStyle;elbow=vertical;curved=0;rounded=0;align=right;" parent="1" target="aM9ryv3xv72pqoxQDRHE-1" edge="1">
          <mxGeometry x="0.1713" relative="1" as="geometry">
            <mxPoint x="-190" y="130" as="sourcePoint" />
            <mxPoint x="-155" y="130.33333333333348" as="targetPoint" />
            <Array as="points">
              <mxPoint x="-170" y="130" />
            </Array>
            <mxPoint as="offset" />
          </mxGeometry>
        </mxCell>
        <mxCell id="xrb0LRakDdT9PTgw8md3-11" value="&lt;font style=&quot;font-size: 9px;&quot; face=&quot;Comic Sans MS&quot;&gt;Get Extensions&lt;/font&gt;" style="html=1;verticalAlign=bottom;endArrow=block;edgeStyle=elbowEdgeStyle;elbow=vertical;curved=0;rounded=0;" edge="1" parent="1">
          <mxGeometry relative="1" as="geometry">
            <mxPoint x="-120" y="200" as="sourcePoint" />
            <Array as="points">
              <mxPoint x="-35" y="200" />
            </Array>
            <mxPoint x="50" y="200" as="targetPoint" />
          </mxGeometry>
        </mxCell>
        <mxCell id="xrb0LRakDdT9PTgw8md3-13" value="&lt;font style=&quot;font-size: 9px;&quot; face=&quot;Comic Sans MS&quot;&gt;Get Workflows&lt;/font&gt;" style="html=1;verticalAlign=bottom;endArrow=block;edgeStyle=elbowEdgeStyle;elbow=vertical;curved=0;rounded=0;" edge="1" parent="1" target="xrb0LRakDdT9PTgw8md3-1">
          <mxGeometry relative="1" as="geometry">
            <mxPoint x="-120" y="260" as="sourcePoint" />
            <Array as="points">
              <mxPoint x="-35" y="260" />
            </Array>
            <mxPoint x="50" y="260" as="targetPoint" />
          </mxGeometry>
        </mxCell>
        <mxCell id="xrb0LRakDdT9PTgw8md3-17" value="&lt;span style=&quot;font-family: &amp;quot;Comic Sans MS&amp;quot;; font-size: 9px;&quot;&gt;environments&lt;/span&gt;" style="html=1;verticalAlign=bottom;endArrow=open;dashed=1;endSize=8;edgeStyle=elbowEdgeStyle;elbow=vertical;curved=0;rounded=0;" edge="1" parent="1">
          <mxGeometry relative="1" as="geometry">
            <mxPoint x="-120" y="160" as="targetPoint" />
            <Array as="points">
              <mxPoint x="-25" y="160" />
            </Array>
            <mxPoint x="50" y="160" as="sourcePoint" />
          </mxGeometry>
        </mxCell>
        <mxCell id="xrb0LRakDdT9PTgw8md3-18" value="&lt;span style=&quot;font-family: &amp;quot;Comic Sans MS&amp;quot;; font-size: 9px;&quot;&gt;extensions&lt;/span&gt;" style="html=1;verticalAlign=bottom;endArrow=open;dashed=1;endSize=8;edgeStyle=elbowEdgeStyle;elbow=vertical;curved=0;rounded=0;" edge="1" parent="1">
          <mxGeometry relative="1" as="geometry">
            <mxPoint x="-120" y="220" as="targetPoint" />
            <Array as="points">
              <mxPoint x="-25" y="220" />
            </Array>
            <mxPoint x="50" y="220" as="sourcePoint" />
          </mxGeometry>
        </mxCell>
        <mxCell id="xrb0LRakDdT9PTgw8md3-19" value="&lt;span style=&quot;font-family: &amp;quot;Comic Sans MS&amp;quot;; font-size: 9px;&quot;&gt;workflows&lt;/span&gt;" style="html=1;verticalAlign=bottom;endArrow=open;dashed=1;endSize=8;edgeStyle=elbowEdgeStyle;elbow=vertical;curved=0;rounded=0;" edge="1" parent="1" source="xrb0LRakDdT9PTgw8md3-2">
          <mxGeometry relative="1" as="geometry">
            <mxPoint x="-120" y="280" as="targetPoint" />
            <Array as="points">
              <mxPoint x="-25" y="280" />
            </Array>
            <mxPoint x="50" y="280" as="sourcePoint" />
          </mxGeometry>
        </mxCell>
        <mxCell id="xrb0LRakDdT9PTgw8md3-20" value="&lt;font style=&quot;font-size: 9px;&quot; face=&quot;Comic Sans MS&quot;&gt;Get Workflow details&lt;/font&gt;" style="html=1;verticalAlign=bottom;endArrow=block;edgeStyle=elbowEdgeStyle;elbow=vertical;curved=0;rounded=0;" edge="1" parent="1">
          <mxGeometry relative="1" as="geometry">
            <mxPoint x="-120" y="330" as="sourcePoint" />
            <Array as="points">
              <mxPoint x="-35" y="330" />
            </Array>
            <mxPoint x="195" y="330" as="targetPoint" />
          </mxGeometry>
        </mxCell>
        <mxCell id="xrb0LRakDdT9PTgw8md3-21" value="&lt;span style=&quot;font-family: &amp;quot;Comic Sans MS&amp;quot;; font-size: 9px;&quot;&gt;workflow_detail&lt;/span&gt;" style="html=1;verticalAlign=bottom;endArrow=open;dashed=1;endSize=8;edgeStyle=elbowEdgeStyle;elbow=vertical;curved=0;rounded=0;" edge="1" parent="1">
          <mxGeometry relative="1" as="geometry">
            <mxPoint x="-120" y="350" as="targetPoint" />
            <Array as="points">
              <mxPoint x="-25" y="350" />
            </Array>
            <mxPoint x="190" y="350" as="sourcePoint" />
          </mxGeometry>
        </mxCell>
        <mxCell id="xrb0LRakDdT9PTgw8md3-22" value="&lt;font style=&quot;font-size: 9px;&quot; face=&quot;Comic Sans MS&quot;&gt;Execute Workflow&lt;/font&gt;" style="html=1;verticalAlign=bottom;endArrow=block;edgeStyle=elbowEdgeStyle;elbow=vertical;curved=0;rounded=0;" edge="1" parent="1">
          <mxGeometry relative="1" as="geometry">
            <mxPoint x="-120" y="400" as="sourcePoint" />
            <Array as="points">
              <mxPoint x="-35" y="400" />
            </Array>
            <mxPoint x="195" y="400" as="targetPoint" />
          </mxGeometry>
        </mxCell>
        <mxCell id="xrb0LRakDdT9PTgw8md3-23" value="&lt;font size=&quot;1&quot; face=&quot;Comic Sans MS&quot;&gt;workflow execution id&lt;/font&gt;" style="html=1;verticalAlign=bottom;endArrow=open;dashed=1;endSize=8;edgeStyle=elbowEdgeStyle;elbow=vertical;curved=0;rounded=0;" edge="1" parent="1">
          <mxGeometry relative="1" as="geometry">
            <mxPoint x="-120" y="520" as="targetPoint" />
            <Array as="points">
              <mxPoint x="-25" y="520" />
            </Array>
            <mxPoint x="190" y="520" as="sourcePoint" />
          </mxGeometry>
        </mxCell>
        <mxCell id="xrb0LRakDdT9PTgw8md3-24" value="&lt;font style=&quot;font-size: 9px;&quot; face=&quot;Comic Sans MS&quot;&gt;Get Workflow status&lt;/font&gt;" style="html=1;verticalAlign=bottom;endArrow=block;edgeStyle=elbowEdgeStyle;elbow=vertical;curved=0;rounded=0;" edge="1" parent="1">
          <mxGeometry relative="1" as="geometry">
            <mxPoint x="-120" y="590" as="sourcePoint" />
            <Array as="points">
              <mxPoint x="-35" y="590" />
            </Array>
            <mxPoint x="195" y="590" as="targetPoint" />
          </mxGeometry>
        </mxCell>
        <mxCell id="xrb0LRakDdT9PTgw8md3-25" value="&lt;font size=&quot;1&quot; face=&quot;Comic Sans MS&quot;&gt;workflow response&lt;/font&gt;" style="html=1;verticalAlign=bottom;endArrow=open;dashed=1;endSize=8;edgeStyle=elbowEdgeStyle;elbow=vertical;curved=0;rounded=0;" edge="1" parent="1">
          <mxGeometry relative="1" as="geometry">
            <mxPoint x="-120" y="620" as="targetPoint" />
            <Array as="points">
              <mxPoint x="-25" y="620" />
            </Array>
            <mxPoint x="190" y="620" as="sourcePoint" />
          </mxGeometry>
        </mxCell>
        <mxCell id="xrb0LRakDdT9PTgw8md3-5" value="" style="html=1;points=[];perimeter=orthogonalPerimeter;outlineConnect=0;targetShapes=umlLifeline;portConstraint=eastwest;newEdgeStyle={&quot;edgeStyle&quot;:&quot;elbowEdgeStyle&quot;,&quot;elbow&quot;:&quot;vertical&quot;,&quot;curved&quot;:0,&quot;rounded&quot;:0};" vertex="1" parent="1">
          <mxGeometry x="370" y="380" width="10" height="190" as="geometry" />
        </mxCell>
        <mxCell id="xrb0LRakDdT9PTgw8md3-26" value="&lt;font style=&quot;font-size: 9px;&quot; face=&quot;Comic Sans MS&quot;&gt;Run Workflow&lt;/font&gt;" style="html=1;verticalAlign=bottom;endArrow=block;edgeStyle=elbowEdgeStyle;elbow=vertical;curved=0;rounded=0;" edge="1" parent="1" target="xrb0LRakDdT9PTgw8md3-5">
          <mxGeometry relative="1" as="geometry">
            <mxPoint x="200" y="440" as="sourcePoint" />
            <Array as="points">
              <mxPoint x="285" y="440" />
            </Array>
            <mxPoint x="515" y="440" as="targetPoint" />
          </mxGeometry>
        </mxCell>
        <mxCell id="xrb0LRakDdT9PTgw8md3-27" value="&lt;font style=&quot;font-size: 9px;&quot; face=&quot;Comic Sans MS&quot;&gt;Operation Repository&lt;/font&gt;" style="shape=umlLifeline;perimeter=lifelinePerimeter;whiteSpace=wrap;html=1;container=0;dropTarget=0;collapsible=0;recursiveResize=0;outlineConnect=0;portConstraint=eastwest;newEdgeStyle={&quot;edgeStyle&quot;:&quot;elbowEdgeStyle&quot;,&quot;elbow&quot;:&quot;vertical&quot;,&quot;curved&quot;:0,&quot;rounded&quot;:0};" vertex="1" parent="1">
          <mxGeometry x="470" y="40" width="100" height="600" as="geometry" />
        </mxCell>
        <mxCell id="xrb0LRakDdT9PTgw8md3-35" style="edgeStyle=orthogonalEdgeStyle;rounded=0;orthogonalLoop=1;jettySize=auto;html=1;elbow=vertical;curved=1;" edge="1" parent="xrb0LRakDdT9PTgw8md3-27" source="xrb0LRakDdT9PTgw8md3-28" target="xrb0LRakDdT9PTgw8md3-28">
          <mxGeometry relative="1" as="geometry">
            <mxPoint x="130" y="440" as="targetPoint" />
          </mxGeometry>
        </mxCell>
        <mxCell id="xrb0LRakDdT9PTgw8md3-28" value="" style="html=1;points=[];perimeter=orthogonalPerimeter;outlineConnect=0;targetShapes=umlLifeline;portConstraint=eastwest;newEdgeStyle={&quot;edgeStyle&quot;:&quot;elbowEdgeStyle&quot;,&quot;elbow&quot;:&quot;vertical&quot;,&quot;curved&quot;:0,&quot;rounded&quot;:0};" vertex="1" parent="xrb0LRakDdT9PTgw8md3-27">
          <mxGeometry x="45" y="340" width="10" height="190" as="geometry" />
        </mxCell>
        <mxCell id="xrb0LRakDdT9PTgw8md3-29" value="&lt;font style=&quot;font-size: 9px;&quot; face=&quot;Comic Sans MS&quot;&gt;Enqueue message&lt;/font&gt;" style="html=1;verticalAlign=bottom;endArrow=block;edgeStyle=elbowEdgeStyle;elbow=vertical;curved=0;rounded=0;" edge="1" parent="1">
          <mxGeometry relative="1" as="geometry">
            <mxPoint x="380" y="460" as="sourcePoint" />
            <Array as="points">
              <mxPoint x="465" y="460" />
            </Array>
            <mxPoint x="510" y="460" as="targetPoint" />
          </mxGeometry>
        </mxCell>
        <mxCell id="xrb0LRakDdT9PTgw8md3-30" value="&lt;font style=&quot;font-size: 9px;&quot; face=&quot;Comic Sans MS&quot;&gt;AcisDispatcher&lt;/font&gt;" style="shape=umlLifeline;perimeter=lifelinePerimeter;whiteSpace=wrap;html=1;container=0;dropTarget=0;collapsible=0;recursiveResize=0;outlineConnect=0;portConstraint=eastwest;newEdgeStyle={&quot;edgeStyle&quot;:&quot;elbowEdgeStyle&quot;,&quot;elbow&quot;:&quot;vertical&quot;,&quot;curved&quot;:0,&quot;rounded&quot;:0};" vertex="1" parent="1">
          <mxGeometry x="610" y="40" width="100" height="600" as="geometry" />
        </mxCell>
        <mxCell id="xrb0LRakDdT9PTgw8md3-31" value="" style="html=1;points=[];perimeter=orthogonalPerimeter;outlineConnect=0;targetShapes=umlLifeline;portConstraint=eastwest;newEdgeStyle={&quot;edgeStyle&quot;:&quot;elbowEdgeStyle&quot;,&quot;elbow&quot;:&quot;vertical&quot;,&quot;curved&quot;:0,&quot;rounded&quot;:0};" vertex="1" parent="xrb0LRakDdT9PTgw8md3-30">
          <mxGeometry x="45" y="340" width="10" height="190" as="geometry" />
        </mxCell>
        <mxCell id="xrb0LRakDdT9PTgw8md3-32" value="&lt;font size=&quot;1&quot; face=&quot;Comic Sans MS&quot;&gt;Workflow Handler&lt;/font&gt;" style="shape=umlLifeline;perimeter=lifelinePerimeter;whiteSpace=wrap;html=1;container=0;dropTarget=0;collapsible=0;recursiveResize=0;outlineConnect=0;portConstraint=eastwest;newEdgeStyle={&quot;edgeStyle&quot;:&quot;elbowEdgeStyle&quot;,&quot;elbow&quot;:&quot;vertical&quot;,&quot;curved&quot;:0,&quot;rounded&quot;:0};" vertex="1" parent="1">
          <mxGeometry x="750" y="40" width="100" height="600" as="geometry" />
        </mxCell>
        <mxCell id="xrb0LRakDdT9PTgw8md3-33" value="" style="html=1;points=[];perimeter=orthogonalPerimeter;outlineConnect=0;targetShapes=umlLifeline;portConstraint=eastwest;newEdgeStyle={&quot;edgeStyle&quot;:&quot;elbowEdgeStyle&quot;,&quot;elbow&quot;:&quot;vertical&quot;,&quot;curved&quot;:0,&quot;rounded&quot;:0};" vertex="1" parent="xrb0LRakDdT9PTgw8md3-32">
          <mxGeometry x="45" y="340" width="10" height="190" as="geometry" />
        </mxCell>
        <mxCell id="xrb0LRakDdT9PTgw8md3-37" value="&lt;font style=&quot;font-size: 9px;&quot; face=&quot;Comic Sans MS&quot;&gt;Schedule Workflow&lt;/font&gt;" style="html=1;verticalAlign=bottom;endArrow=block;edgeStyle=elbowEdgeStyle;elbow=vertical;curved=0;rounded=0;" edge="1" parent="1">
          <mxGeometry relative="1" as="geometry">
            <mxPoint x="670" y="480" as="sourcePoint" />
            <Array as="points">
              <mxPoint x="755" y="480" />
            </Array>
            <mxPoint x="800" y="480" as="targetPoint" />
            <mxPoint as="offset" />
          </mxGeometry>
        </mxCell>
        <mxCell id="xrb0LRakDdT9PTgw8md3-38" value="&lt;font size=&quot;1&quot; face=&quot;Comic Sans MS&quot;&gt;AEH&lt;/font&gt;" style="shape=umlLifeline;perimeter=lifelinePerimeter;whiteSpace=wrap;html=1;container=0;dropTarget=0;collapsible=0;recursiveResize=0;outlineConnect=0;portConstraint=eastwest;newEdgeStyle={&quot;edgeStyle&quot;:&quot;elbowEdgeStyle&quot;,&quot;elbow&quot;:&quot;vertical&quot;,&quot;curved&quot;:0,&quot;rounded&quot;:0};" vertex="1" parent="1">
          <mxGeometry x="870" y="40" width="100" height="600" as="geometry" />
        </mxCell>
        <mxCell id="xrb0LRakDdT9PTgw8md3-39" value="" style="html=1;points=[];perimeter=orthogonalPerimeter;outlineConnect=0;targetShapes=umlLifeline;portConstraint=eastwest;newEdgeStyle={&quot;edgeStyle&quot;:&quot;elbowEdgeStyle&quot;,&quot;elbow&quot;:&quot;vertical&quot;,&quot;curved&quot;:0,&quot;rounded&quot;:0};" vertex="1" parent="xrb0LRakDdT9PTgw8md3-38">
          <mxGeometry x="45" y="340" width="10" height="190" as="geometry" />
        </mxCell>
        <mxCell id="xrb0LRakDdT9PTgw8md3-40" value="&lt;font style=&quot;font-size: 9px;&quot; face=&quot;Comic Sans MS&quot;&gt;Execute Workflow Job&lt;/font&gt;" style="html=1;verticalAlign=bottom;endArrow=block;edgeStyle=elbowEdgeStyle;elbow=vertical;curved=0;rounded=0;" edge="1" parent="1">
          <mxGeometry relative="1" as="geometry">
            <mxPoint x="810" y="500" as="sourcePoint" />
            <Array as="points">
              <mxPoint x="895" y="500" />
            </Array>
            <mxPoint x="910" y="500" as="targetPoint" />
            <mxPoint as="offset" />
          </mxGeometry>
        </mxCell>
        <mxCell id="xrb0LRakDdT9PTgw8md3-41" value="&lt;font size=&quot;1&quot; face=&quot;Comic Sans MS&quot;&gt;workflow execution id&lt;/font&gt;" style="html=1;verticalAlign=bottom;endArrow=open;dashed=1;endSize=8;edgeStyle=elbowEdgeStyle;elbow=vertical;curved=0;rounded=0;" edge="1" parent="1">
          <mxGeometry relative="1" as="geometry">
            <mxPoint x="380" y="500" as="targetPoint" />
            <Array as="points">
              <mxPoint x="475" y="500" />
            </Array>
            <mxPoint x="510" y="500" as="sourcePoint" />
          </mxGeometry>
        </mxCell>
        <mxCell id="xrb0LRakDdT9PTgw8md3-42" value="&lt;font size=&quot;1&quot; face=&quot;Comic Sans MS&quot;&gt;workflow execution id&lt;/font&gt;" style="html=1;verticalAlign=bottom;endArrow=open;dashed=1;endSize=8;edgeStyle=elbowEdgeStyle;elbow=vertical;curved=0;rounded=0;" edge="1" parent="1" source="xrb0LRakDdT9PTgw8md3-5">
          <mxGeometry relative="1" as="geometry">
            <mxPoint x="200" y="510" as="targetPoint" />
            <Array as="points">
              <mxPoint x="295" y="510" />
            </Array>
            <mxPoint x="330" y="510" as="sourcePoint" />
          </mxGeometry>
        </mxCell>
      </root>
    </mxGraphModel>
  </diagram>
</mxfile>
